<?xml version="1.0" standalone="no"?>
<!DOCTYPE svg PUBLIC "-//W3C//DTD SVG 20010904//EN"
 "http://www.w3.org/TR/2001/REC-SVG-20010904/DTD/svg10.dtd">
<svg version="1.0" xmlns="http://www.w3.org/2000/svg"
 width="289.000000pt" height="207.000000pt" viewBox="0 0 289.000000 207.000000"
 preserveAspectRatio="xMidYMid meet">

<g transform="translate(0.000000,207.000000) scale(0.100000,-0.100000)"
fill="#FFFFFF" stroke="none">
<path d="M166 1942 c5 -5 45 -21 89 -36 90 -31 257 -116 345 -176 103 -70 210
-161 210 -178 -1 -10 -134 -124 -310 -267 -240 -193 -307 -252 -297 -261 6 -6
146 -123 310 -259 163 -136 297 -251 297 -255 0 -13 -82 -81 -185 -155 -114
-82 -285 -171 -395 -206 l-85 -28 311 0 310 -1 165 136 c90 74 199 159 241
187 43 29 77 55 78 58 0 4 -142 123 -315 265 -173 143 -315 261 -314 264 0 3
133 115 295 250 162 135 301 252 309 260 13 14 5 23 -62 75 -42 33 -100 85
-130 115 -54 56 -124 173 -110 186 19 19 238 -77 370 -162 78 -50 257 -192
256 -202 0 -4 -142 -123 -315 -265 l-315 -258 64 -52 c34 -29 177 -144 316
-257 l252 -205 -58 -53 c-128 -118 -351 -249 -523 -308 l-95 -33 312 0 312 -1
133 111 c73 61 181 148 241 192 81 61 105 83 97 92 -6 7 -148 125 -315 261
-168 136 -305 250 -305 253 1 3 140 120 310 260 171 140 310 257 310 261 0 4
-40 40 -89 79 -105 84 -174 158 -207 223 -37 73 -34 80 28 62 81 -25 210 -87
305 -150 104 -67 273 -196 270 -206 -1 -3 -135 -122 -297 -262 -162 -141 -296
-260 -298 -265 -1 -5 137 -122 308 -261 170 -139 310 -256 310 -260 0 -13
-145 -127 -240 -190 -107 -70 -230 -131 -340 -169 l-85 -29 310 -1 310 -1 120
101 c66 55 172 140 235 188 63 48 117 90 120 94 3 3 -132 117 -300 253 -168
135 -311 251 -317 258 -10 9 55 68 301 271 173 143 315 262 315 265 0 3 -32
30 -71 60 -141 109 -208 189 -252 303 l-15 37 -1117 0 c-615 0 -1114 -4 -1108
-8z"/>
</g>
</svg>