<?xml version="1.0" standalone="no"?>
<!DOCTYPE svg PUBLIC "-//W3C//DTD SVG 20010904//EN"
 "http://www.w3.org/TR/2001/REC-SVG-20010904/DTD/svg10.dtd">
<svg version="1.0" xmlns="http://www.w3.org/2000/svg"
 width="1080.000000pt" height="288.000000pt" viewBox="0 0 1080.000000 288.000000"
 preserveAspectRatio="xMidYMid meet">

<g transform="translate(0.000000,288.000000) scale(0.100000,-0.100000)"
fill="#000000" stroke="none">
<path d="M1146 2320 c110 -38 287 -130 384 -199 103 -73 190 -149 189 -164 0
-7 -139 -124 -310 -261 -170 -138 -309 -251 -309 -253 0 -1 138 -118 308 -259
169 -141 308 -260 310 -264 2 -5 -27 -34 -65 -65 -152 -126 -347 -240 -508
-296 l-80 -27 305 -1 305 -1 170 141 c94 77 202 161 242 187 40 26 71 50 70
53 -1 3 -143 122 -315 264 -172 141 -312 260 -310 265 2 4 139 121 306 260
166 138 302 255 302 259 0 4 -43 42 -96 85 -52 43 -113 101 -135 129 -65 81
-97 157 -68 157 26 0 200 -76 282 -122 128 -73 327 -224 327 -249 0 -4 -137
-121 -305 -259 -168 -139 -307 -255 -310 -260 -3 -4 135 -121 305 -259 171
-139 310 -256 310 -261 0 -14 -123 -113 -225 -182 -108 -73 -243 -141 -350
-179 l-80 -27 306 -1 307 -1 153 128 c85 70 194 156 242 191 48 35 85 67 82
70 -4 3 -144 119 -313 256 -169 138 -307 256 -307 261 0 6 137 124 305 263
168 138 305 255 305 260 0 4 -36 37 -80 72 -44 34 -103 87 -132 117 -52 55
-120 168 -109 180 12 11 99 -18 201 -67 107 -51 251 -144 366 -238 57 -46 68
-59 57 -67 -74 -55 -597 -521 -591 -527 4 -4 145 -118 313 -254 168 -136 305
-251 305 -256 0 -5 -27 -31 -60 -59 -145 -123 -349 -242 -508 -297 l-82 -28
303 -3 302 -2 148 121 c81 66 188 151 239 187 50 37 92 70 92 74 1 3 -140 120
-313 260 -173 139 -315 256 -315 259 -1 3 139 122 309 263 171 141 310 260
310 265 0 4 -36 36 -81 71 -44 35 -104 90 -133 122 -51 56 -106 151 -106 182
0 14 -111 16 -1122 15 l-1123 -1 81 -28z"/>
<path d="M4342 1448 l3 -663 113 -3 112 -3 0 448 c0 248 4 443 9 437 4 -5 90
-204 191 -441 l183 -433 76 0 c42 0 81 4 87 8 7 4 92 203 190 442 l179 434 5
-444 5 -445 113 -3 112 -3 0 666 0 666 -141 -3 -141 -3 -198 -460 c-109 -253
-202 -466 -207 -473 -5 -9 -73 145 -203 462 l-194 476 -148 0 -148 0 2 -662z"/>
<path d="M9520 1445 l0 -665 115 0 115 0 0 665 0 665 -115 0 -115 0 0 -665z"/>
<path d="M7990 1895 l0 -115 -65 0 -65 0 0 -95 0 -95 64 0 65 0 3 -307 3 -308
28 -57 c51 -103 157 -154 302 -145 114 8 117 10 109 66 -4 25 -12 66 -18 91
l-11 44 -64 1 c-104 1 -101 -8 -101 331 l0 284 95 0 96 0 -3 93 -3 92 -92 3
-93 3 0 114 0 115 -125 0 -125 0 0 -115z"/>
<path d="M6207 1779 c-266 -62 -421 -390 -327 -690 70 -228 290 -358 541 -320
145 23 273 108 325 218 14 30 24 57 22 59 -2 2 -51 10 -109 18 -97 14 -105 14
-117 -2 -57 -77 -119 -111 -202 -112 -133 0 -250 112 -250 239 l0 31 345 0
345 0 0 88 c0 158 -43 265 -142 357 -66 61 -140 100 -217 115 -64 12 -161 12
-214 -1z m211 -194 c20 -9 48 -26 61 -38 28 -26 71 -113 71 -144 l0 -23 -230
0 c-255 0 -244 -3 -215 67 52 125 194 187 313 138z"/>
<path d="M7315 1770 c-66 -21 -135 -74 -163 -124 l-17 -31 -5 80 -5 80 -112 3
-113 3 0 -501 0 -500 114 0 115 0 3 328 c3 317 4 328 25 369 30 56 79 91 144
105 95 19 174 -17 210 -96 17 -37 19 -71 19 -374 l0 -333 118 3 117 3 0 370
c0 366 0 371 -24 430 -64 163 -247 242 -426 185z"/>
<path d="M8830 1775 c-151 -37 -247 -112 -285 -222 -13 -37 -12 -38 11 -45 14
-4 64 -9 112 -13 l87 -6 20 33 c47 76 194 110 274 63 69 -41 92 -139 41 -176
-17 -13 -75 -26 -190 -43 -192 -28 -267 -53 -327 -109 -69 -64 -92 -180 -57
-297 12 -39 29 -66 68 -105 68 -68 128 -90 251 -89 79 0 98 3 148 27 31 16 74
48 95 73 22 24 42 44 45 44 3 0 7 -28 9 -62 l3 -63 108 -3 107 -3 0 375 c0
350 -1 379 -20 428 -58 157 -287 245 -500 193z m271 -712 c-40 -79 -117 -123
-210 -123 -55 0 -122 29 -145 61 -19 27 -21 87 -4 124 18 39 98 72 222 91 60
8 118 19 130 24 20 7 21 4 24 -66 2 -57 -1 -82 -17 -111z"/>
</g>
</svg>
